<svg width="242" height="2285" viewBox="0 0 242 2285" fill="none" xmlns="http://www.w3.org/2000/svg">
<path d="M6 17.75V16.25H7.5V11C7.5 9.9625 7.8125 9.04062 8.4375 8.23438C9.0625 7.42812 9.875 6.9 10.875 6.65V6.125C10.875 5.8125 10.9844 5.54687 11.2031 5.32812C11.4219 5.10937 11.6875 5 12 5C12.3125 5 12.5781 5.10937 12.7969 5.32812C13.0156 5.54687 13.125 5.8125 13.125 6.125V6.65C14.125 6.9 14.9375 7.42812 15.5625 8.23438C16.1875 9.04062 16.5 9.9625 16.5 11V16.25H18V17.75H6ZM12 20C11.5875 20 11.2344 19.8531 10.9406 19.5594C10.6469 19.2656 10.5 18.9125 10.5 18.5H13.5C13.5 18.9125 13.3531 19.2656 13.0594 19.5594C12.7656 19.8531 12.4125 20 12 20ZM9 16.25H15V11C15 10.175 14.7063 9.46875 14.1188 8.88125C13.5313 8.29375 12.825 8 12 8C11.175 8 10.4688 8.29375 9.88125 8.88125C9.29375 9.46875 9 10.175 9 11V16.25Z" fill="#A0AEC0"/>
</svg>
