<svg width="243" height="2284" viewBox="0 0 243 2284" fill="none" xmlns="http://www.w3.org/2000/svg">
<path d="M8.39474 11.3L12.1579 5L15.9211 11.3H8.39474ZM15.9211 19C15.0658 19 14.3388 18.6937 13.7401 18.0813C13.1414 17.4688 12.8421 16.725 12.8421 15.85C12.8421 14.975 13.1414 14.2312 13.7401 13.6188C14.3388 13.0062 15.0658 12.7 15.9211 12.7C16.7763 12.7 17.5033 13.0062 18.102 13.6188C18.7007 14.2312 19 14.975 19 15.85C19 16.725 18.7007 17.4688 18.102 18.0813C17.5033 18.6937 16.7763 19 15.9211 19ZM6 18.65V13.05H11.4737V18.65H6ZM15.9211 17.6C16.4 17.6 16.8048 17.4308 17.1355 17.0925C17.4662 16.7542 17.6316 16.34 17.6316 15.85C17.6316 15.36 17.4662 14.9458 17.1355 14.6075C16.8048 14.2692 16.4 14.1 15.9211 14.1C15.4421 14.1 15.0373 14.2692 14.7066 14.6075C14.3759 14.9458 14.2105 15.36 14.2105 15.85C14.2105 16.34 14.3759 16.7542 14.7066 17.0925C15.0373 17.4308 15.4421 17.6 15.9211 17.6ZM7.36842 17.25H10.1053V14.45H7.36842V17.25ZM10.8237 9.9H13.4921L12.1579 7.695L10.8237 9.9Z" fill="#A0AEC0"/>
</svg>
