<svg width="243" height="2284" viewBox="0 0 243 2284" fill="none" xmlns="http://www.w3.org/2000/svg">
<path d="M11.02 15.22L15.955 10.285L14.975 9.305L11.02 13.26L9.025 11.265L8.045 12.245L11.02 15.22ZM12 19C11.0317 19 10.1217 18.8162 9.27 18.4488C8.41833 18.0813 7.6775 17.5825 7.0475 16.9525C6.4175 16.3225 5.91875 15.5817 5.55125 14.73C5.18375 13.8783 5 12.9683 5 12C5 11.0317 5.18375 10.1217 5.55125 9.27C5.91875 8.41833 6.4175 7.6775 7.0475 7.0475C7.6775 6.4175 8.41833 5.91875 9.27 5.55125C10.1217 5.18375 11.0317 5 12 5C12.9683 5 13.8783 5.18375 14.73 5.55125C15.5817 5.91875 16.3225 6.4175 16.9525 7.0475C17.5825 7.6775 18.0813 8.41833 18.4488 9.27C18.8162 10.1217 19 11.0317 19 12C19 12.9683 18.8162 13.8783 18.4488 14.73C18.0813 15.5817 17.5825 16.3225 16.9525 16.9525C16.3225 17.5825 15.5817 18.0813 14.73 18.4488C13.8783 18.8162 12.9683 19 12 19ZM12 17.6C13.5633 17.6 14.8875 17.0575 15.9725 15.9725C17.0575 14.8875 17.6 13.5633 17.6 12C17.6 10.4367 17.0575 9.1125 15.9725 8.0275C14.8875 6.9425 13.5633 6.4 12 6.4C10.4367 6.4 9.1125 6.9425 8.0275 8.0275C6.9425 9.1125 6.4 10.4367 6.4 12C6.4 13.5633 6.9425 14.8875 8.0275 15.9725C9.1125 17.0575 10.4367 17.6 12 17.6Z" fill="#A0AEC0"/>
</svg>
