<svg width="243" height="2284" viewBox="0 0 243 2284" fill="none" xmlns="http://www.w3.org/2000/svg">
<path d="M8.5 16.6667C8.82407 16.6667 9.09954 16.5532 9.32639 16.3264C9.55324 16.0995 9.66667 15.8241 9.66667 15.5C9.66667 15.1759 9.55324 14.9005 9.32639 14.6736C9.09954 14.4468 8.82407 14.3333 8.5 14.3333C8.17593 14.3333 7.90046 14.4468 7.67361 14.6736C7.44676 14.9005 7.33333 15.1759 7.33333 15.5C7.33333 15.8241 7.44676 16.0995 7.67361 16.3264C7.90046 16.5532 8.17593 16.6667 8.5 16.6667ZM8.5 9.66667C8.82407 9.66667 9.09954 9.55324 9.32639 9.32639C9.55324 9.09954 9.66667 8.82407 9.66667 8.5C9.66667 8.17593 9.55324 7.90046 9.32639 7.67361C9.09954 7.44676 8.82407 7.33333 8.5 7.33333C8.17593 7.33333 7.90046 7.44676 7.67361 7.67361C7.44676 7.90046 7.33333 8.17593 7.33333 8.5C7.33333 8.82407 7.44676 9.09954 7.67361 9.32639C7.90046 9.55324 8.17593 9.66667 8.5 9.66667ZM12 13.1667C12.3241 13.1667 12.5995 13.0532 12.8264 12.8264C13.0532 12.5995 13.1667 12.3241 13.1667 12C13.1667 11.6759 13.0532 11.4005 12.8264 11.1736C12.5995 10.9468 12.3241 10.8333 12 10.8333C11.6759 10.8333 11.4005 10.9468 11.1736 11.1736C10.9468 11.4005 10.8333 11.6759 10.8333 12C10.8333 12.3241 10.9468 12.5995 11.1736 12.8264C11.4005 13.0532 11.6759 13.1667 12 13.1667ZM15.5 16.6667C15.8241 16.6667 16.0995 16.5532 16.3264 16.3264C16.5532 16.0995 16.6667 15.8241 16.6667 15.5C16.6667 15.1759 16.5532 14.9005 16.3264 14.6736C16.0995 14.4468 15.8241 14.3333 15.5 14.3333C15.1759 14.3333 14.9005 14.4468 14.6736 14.6736C14.4468 14.9005 14.3333 15.1759 14.3333 15.5C14.3333 15.8241 14.4468 16.0995 14.6736 16.3264C14.9005 16.5532 15.1759 16.6667 15.5 16.6667ZM15.5 9.66667C15.8241 9.66667 16.0995 9.55324 16.3264 9.32639C16.5532 9.09954 16.6667 8.82407 16.6667 8.5C16.6667 8.17593 16.5532 7.90046 16.3264 7.67361C16.0995 7.44676 15.8241 7.33333 15.5 7.33333C15.1759 7.33333 14.9005 7.44676 14.6736 7.67361C14.4468 7.90046 14.3333 8.17593 14.3333 8.5C14.3333 8.82407 14.4468 9.09954 14.6736 9.32639C14.9005 9.55324 15.1759 9.66667 15.5 9.66667ZM6.55556 19C6.12778 19 5.76157 18.8477 5.45694 18.5431C5.15231 18.2384 5 17.8722 5 17.4444V6.55556C5 6.12778 5.15231 5.76157 5.45694 5.45694C5.76157 5.15231 6.12778 5 6.55556 5H17.4444C17.8722 5 18.2384 5.15231 18.5431 5.45694C18.8477 5.76157 19 6.12778 19 6.55556V17.4444C19 17.8722 18.8477 18.2384 18.5431 18.5431C18.2384 18.8477 17.8722 19 17.4444 19H6.55556ZM6.55556 17.4444H17.4444V6.55556H6.55556V17.4444Z" fill="#A0AEC0"/>
</svg>
