<svg width="241" height="2284" viewBox="0 0 241 2284" fill="none" xmlns="http://www.w3.org/2000/svg">
<path d="M11.2857 19C10.0952 19 9.08333 18.5702 8.25 17.7105C7.41667 16.8509 7 15.807 7 14.5789V10.1579L10.5714 13.8421L9.57143 14.8921L8.42857 13.7132V14.5789C8.42857 15.3895 8.70833 16.0833 9.26786 16.6605C9.82738 17.2377 10.5 17.5263 11.2857 17.5263C12.0714 17.5263 12.744 17.2377 13.3036 16.6605C13.8631 16.0833 14.1429 15.3895 14.1429 14.5789V12.2395C13.7143 12.0675 13.369 11.7943 13.1071 11.4197C12.8452 11.0452 12.7143 10.6246 12.7143 10.1579C12.7143 9.69123 12.8452 9.27061 13.1071 8.89605C13.369 8.52149 13.7143 8.24825 14.1429 8.07632V5H15.5714V8.07632C16 8.24825 16.3452 8.52149 16.6071 8.89605C16.869 9.27061 17 9.69123 17 10.1579C17 10.6246 16.869 11.0482 16.6071 11.4289C16.3452 11.8096 16 12.0798 15.5714 12.2395V14.5789C15.5714 15.807 15.1548 16.8509 14.3214 17.7105C13.4881 18.5702 12.4762 19 11.2857 19ZM14.8571 10.8947C15.0595 10.8947 15.2292 10.8241 15.3661 10.6829C15.503 10.5417 15.5714 10.3667 15.5714 10.1579C15.5714 9.94912 15.503 9.77412 15.3661 9.6329C15.2292 9.49167 15.0595 9.42105 14.8571 9.42105C14.6548 9.42105 14.4851 9.49167 14.3482 9.6329C14.2113 9.77412 14.1429 9.94912 14.1429 10.1579C14.1429 10.3667 14.2113 10.5417 14.3482 10.6829C14.4851 10.8241 14.6548 10.8947 14.8571 10.8947Z" fill="#A0AEC0"/>
</svg>
