<svg width="243" height="2284" viewBox="0 0 243 2284" fill="none" xmlns="http://www.w3.org/2000/svg">
<path d="M12 19C11.0317 19 10.1217 18.8163 9.27 18.4488C8.41833 18.0813 7.6775 17.5825 7.0475 16.9525C6.4175 16.3225 5.91875 15.5817 5.55125 14.73C5.18375 13.8783 5 12.9683 5 12C5 11.0317 5.18375 10.1217 5.55125 9.27C5.91875 8.41833 6.4175 7.6775 7.0475 7.0475C7.6775 6.4175 8.41833 5.91875 9.27 5.55125C10.1217 5.18375 11.0317 5 12 5C12.9683 5 13.8783 5.18375 14.73 5.55125C15.5817 5.91875 16.3225 6.4175 16.9525 7.0475C17.5825 7.6775 18.0812 8.41833 18.4487 9.27C18.8162 10.1217 19 11.0317 19 12C19 12.9683 18.8162 13.8783 18.4487 14.73C18.0812 15.5817 17.5825 16.3225 16.9525 16.9525C16.3225 17.5825 15.5817 18.0813 14.73 18.4488C13.8783 18.8163 12.9683 19 12 19ZM15.5 10.25L16.445 9.935L16.725 8.99C16.3517 8.43 15.9025 7.94875 15.3775 7.54625C14.8525 7.14375 14.275 6.84333 13.645 6.645L12.7 7.31V8.29L15.5 10.25ZM8.5 10.25L11.3 8.29V7.31L10.355 6.645C9.725 6.84333 9.1475 7.14375 8.6225 7.54625C8.0975 7.94875 7.64833 8.43 7.275 8.99L7.555 9.935L8.5 10.25ZM7.765 15.64L8.57 15.57L9.095 14.625L8.08 11.58L7.1 11.23L6.4 11.755C6.4 12.5133 6.505 13.2046 6.715 13.8288C6.925 14.4529 7.275 15.0567 7.765 15.64ZM12 17.6C12.3033 17.6 12.6008 17.5767 12.8925 17.53C13.1842 17.4833 13.47 17.4133 13.75 17.32L14.24 16.27L13.785 15.5H10.215L9.76 16.27L10.25 17.32C10.53 17.4133 10.8158 17.4833 11.1075 17.53C11.3992 17.5767 11.6967 17.6 12 17.6ZM10.425 14.1H13.575L14.555 11.3L12 9.515L9.48 11.3L10.425 14.1ZM16.235 15.64C16.725 15.0567 17.075 14.4529 17.285 13.8288C17.495 13.2046 17.6 12.5133 17.6 11.755L16.9 11.265L15.92 11.58L14.905 14.625L15.43 15.57L16.235 15.64Z" fill="#A0AEC0"/>
</svg>
