<svg width="245" height="2283" viewBox="0 0 245 2283" fill="none" xmlns="http://www.w3.org/2000/svg">
<path d="M5.65799 18C4.9344 18 4.37398 17.7464 3.97672 17.2393C3.57945 16.7321 3.43048 16.1143 3.52979 15.3857L4.42364 8.95714C4.55133 8.1 4.93085 7.39286 5.56222 6.83571C6.19358 6.27857 6.9349 6 7.78618 6H16.2138C17.0651 6 17.8064 6.27857 18.4378 6.83571C19.0691 7.39286 19.4487 8.1 19.5764 8.95714L20.4702 15.3857C20.5695 16.1143 20.4205 16.7321 20.0233 17.2393C19.626 17.7464 19.0656 18 18.342 18C18.0441 18 17.7674 17.9464 17.512 17.8393C17.2566 17.7321 17.0225 17.5714 16.8097 17.3571L14.8943 15.4286H9.10566L7.19029 17.3571C6.97747 17.5714 6.74337 17.7321 6.48798 17.8393C6.2326 17.9464 5.95593 18 5.65799 18ZM5.9985 16.1571L8.42464 13.7143H15.5754L18.0015 16.1571C18.0299 16.1857 18.1434 16.2286 18.342 16.2857C18.4981 16.2857 18.6222 16.2393 18.7144 16.1464C18.8067 16.0536 18.8386 15.9286 18.8102 15.7714L17.8738 9.17143C17.8171 8.75714 17.6326 8.41071 17.3205 8.13214C17.0083 7.85357 16.6395 7.71429 16.2138 7.71429H7.78618C7.36054 7.71429 6.99165 7.85357 6.67952 8.13214C6.36738 8.41071 6.18294 8.75714 6.12619 9.17143L5.18978 15.7714C5.16141 15.9286 5.19333 16.0536 5.28555 16.1464C5.37778 16.2393 5.50192 16.2857 5.65799 16.2857C5.68636 16.2857 5.79987 16.2429 5.9985 16.1571ZM16.2564 12.8571C16.4976 12.8571 16.6998 12.775 16.8629 12.6107C17.0261 12.4464 17.1077 12.2429 17.1077 12C17.1077 11.7571 17.0261 11.5536 16.8629 11.3893C16.6998 11.225 16.4976 11.1429 16.2564 11.1429C16.0152 11.1429 15.813 11.225 15.6499 11.3893C15.4867 11.5536 15.4051 11.7571 15.4051 12C15.4051 12.2429 15.4867 12.4464 15.6499 12.6107C15.813 12.775 16.0152 12.8571 16.2564 12.8571ZM14.5538 10.2857C14.795 10.2857 14.9972 10.2036 15.1604 10.0393C15.3235 9.875 15.4051 9.67143 15.4051 9.42857C15.4051 9.18571 15.3235 8.98214 15.1604 8.81786C14.9972 8.65357 14.795 8.57143 14.5538 8.57143C14.3126 8.57143 14.1105 8.65357 13.9473 8.81786C13.7841 8.98214 13.7026 9.18571 13.7026 9.42857C13.7026 9.67143 13.7841 9.875 13.9473 10.0393C14.1105 10.2036 14.3126 10.2857 14.5538 10.2857ZM8.38207 12.8571H9.65899V11.3571H11.1487V10.0714H9.65899V8.57143H8.38207V10.0714H6.89234V11.3571H8.38207V12.8571Z" fill="#A0AEC0"/>
</svg>
