<svg width="243" height="2281" viewBox="0 0 243 2281" fill="none" xmlns="http://www.w3.org/2000/svg">
<path d="M12.5 14.2C13.2386 14.2 13.8665 13.9375 14.3835 13.4125C14.9006 12.8875 15.1591 12.25 15.1591 11.5C15.1591 10.75 14.9006 10.1125 14.3835 9.5875C13.8665 9.0625 13.2386 8.8 12.5 8.8C11.7614 8.8 11.1335 9.0625 10.6165 9.5875C10.0994 10.1125 9.84091 10.75 9.84091 11.5C9.84091 12.25 10.0994 12.8875 10.6165 13.4125C11.1335 13.9375 11.7614 14.2 12.5 14.2ZM12.5 13.12C12.0568 13.12 11.6801 12.9625 11.3699 12.6475C11.0597 12.3325 10.9045 11.95 10.9045 11.5C10.9045 11.05 11.0597 10.6675 11.3699 10.3525C11.6801 10.0375 12.0568 9.88 12.5 9.88C12.9432 9.88 13.3199 10.0375 13.6301 10.3525C13.9403 10.6675 14.0955 11.05 14.0955 11.5C14.0955 11.95 13.9403 12.3325 13.6301 12.6475C13.3199 12.9625 12.9432 13.12 12.5 13.12ZM12.5 16C11.0621 16 9.75227 15.5925 8.57045 14.7775C7.38864 13.9625 6.53182 12.87 6 11.5C6.53182 10.13 7.38864 9.0375 8.57045 8.2225C9.75227 7.4075 11.0621 7 12.5 7C13.9379 7 15.2477 7.4075 16.4295 8.2225C17.6114 9.0375 18.4682 10.13 19 11.5C18.4682 12.87 17.6114 13.9625 16.4295 14.7775C15.2477 15.5925 13.9379 16 12.5 16ZM12.5 14.8C13.6129 14.8 14.6347 14.5025 15.5653 13.9075C16.496 13.3125 17.2076 12.51 17.7 11.5C17.2076 10.49 16.496 9.6875 15.5653 9.0925C14.6347 8.4975 13.6129 8.2 12.5 8.2C11.3871 8.2 10.3653 8.4975 9.43466 9.0925C8.50398 9.6875 7.79242 10.49 7.3 11.5C7.79242 12.51 8.50398 13.3125 9.43466 13.9075C10.3653 14.5025 11.3871 14.8 12.5 14.8Z" fill="#A0AEC0"/>
</svg>
