<svg width="244" height="2284" viewBox="0 0 244 2284" fill="none" xmlns="http://www.w3.org/2000/svg">
<path d="M14.901 14.4306L15.7638 11.3721L13.1002 9.56644L12.2374 12.625L14.901 14.4306ZM6.4976 17.397L5.8786 17.1022C5.49095 16.9425 5.22834 16.6692 5.09079 16.2823C4.95323 15.8954 4.97199 15.5115 5.14706 15.1308L6.4976 12.2565V17.397ZM9.4988 19C9.08613 19 8.73287 18.8526 8.439 18.5578C8.14513 18.263 7.9982 17.9129 7.9982 17.5076V13.104L10.0053 18.521C10.0428 18.6069 10.074 18.6898 10.099 18.7697C10.124 18.8495 10.1678 18.9263 10.2303 19H9.4988ZM13.3628 18.9079C12.9752 19.043 12.5875 19.0246 12.1999 18.8526C11.8122 18.6806 11.5496 18.4043 11.4121 18.0235L8.09199 9.01369C7.95443 8.63291 7.97319 8.25519 8.14826 7.88056C8.32333 7.50591 8.60469 7.25104 8.99235 7.11592L14.6384 5.08918C15.026 4.95406 15.4105 4.97249 15.7919 5.14445C16.1733 5.31642 16.4328 5.59279 16.5704 5.97357L19.9092 14.9834C20.0468 15.3641 20.028 15.7419 19.8529 16.1165C19.6779 16.4911 19.3965 16.746 19.0089 16.8811L13.3628 18.9079ZM12.8376 17.526L18.5024 15.4993L15.1448 6.47105L9.4988 8.49779L12.8376 17.526Z" fill="#A0AEC0"/>
</svg>
