<svg width="243" height="2283" viewBox="0 0 243 2283" fill="none" xmlns="http://www.w3.org/2000/svg">
<path d="M6 18V6H12.5V8.66667H19V18H6ZM7.3 16.6667H8.6V15.3333H7.3V16.6667ZM7.3 14H8.6V12.6667H7.3V14ZM7.3 11.3333H8.6V10H7.3V11.3333ZM7.3 8.66667H8.6V7.33333H7.3V8.66667ZM9.9 16.6667H11.2V15.3333H9.9V16.6667ZM9.9 14H11.2V12.6667H9.9V14ZM9.9 11.3333H11.2V10H9.9V11.3333ZM9.9 8.66667H11.2V7.33333H9.9V8.66667ZM12.5 16.6667H17.7V10H12.5V11.3333H13.8V12.6667H12.5V14H13.8V15.3333H12.5V16.6667ZM15.1 12.6667V11.3333H16.4V12.6667H15.1ZM15.1 15.3333V14H16.4V15.3333H15.1Z" fill="#A0AEC0"/>
</svg>
