<svg width="243" height="2284" viewBox="0 0 243 2284" fill="none" xmlns="http://www.w3.org/2000/svg">
<path d="M10.0846 19L9.80597 16.76C9.65506 16.7017 9.51285 16.6317 9.37935 16.55C9.24585 16.4683 9.11526 16.3808 8.98756 16.2875L6.91542 17.1625L5 13.8375L6.79353 12.4725C6.78192 12.3908 6.77612 12.3121 6.77612 12.2362C6.77612 12.1604 6.77612 12.0817 6.77612 12C6.77612 11.9183 6.77612 11.8396 6.77612 11.7638C6.77612 11.6879 6.78192 11.6092 6.79353 11.5275L5 10.1625L6.91542 6.8375L8.98756 7.7125C9.11526 7.61917 9.24876 7.53167 9.38806 7.45C9.52736 7.36833 9.66667 7.29833 9.80597 7.24L10.0846 5H13.9154L14.194 7.24C14.3449 7.29833 14.4871 7.36833 14.6206 7.45C14.7541 7.53167 14.8847 7.61917 15.0124 7.7125L17.0846 6.8375L19 10.1625L17.2065 11.5275C17.2181 11.6092 17.2239 11.6879 17.2239 11.7638C17.2239 11.8396 17.2239 11.9183 17.2239 12C17.2239 12.0817 17.2239 12.1604 17.2239 12.2362C17.2239 12.3121 17.2123 12.3908 17.1891 12.4725L18.9826 13.8375L17.0672 17.1625L15.0124 16.2875C14.8847 16.3808 14.7512 16.4683 14.6119 16.55C14.4726 16.6317 14.3333 16.7017 14.194 16.76L13.9154 19H10.0846ZM11.3035 17.6H12.6791L12.9229 15.745C13.2828 15.6517 13.6165 15.5146 13.9241 15.3338C14.2318 15.1529 14.5133 14.9342 14.7687 14.6775L16.4925 15.395L17.1716 14.205L15.6741 13.0675C15.7322 12.9042 15.7728 12.7321 15.796 12.5512C15.8192 12.3704 15.8308 12.1867 15.8308 12C15.8308 11.8133 15.8192 11.6296 15.796 11.4488C15.7728 11.2679 15.7322 11.0958 15.6741 10.9325L17.1716 9.795L16.4925 8.605L14.7687 9.34C14.5133 9.07167 14.2318 8.84708 13.9241 8.66625C13.6165 8.48542 13.2828 8.34833 12.9229 8.255L12.6965 6.4H11.3209L11.0771 8.255C10.7172 8.34833 10.3835 8.48542 10.0759 8.66625C9.76824 8.84708 9.48673 9.06583 9.23134 9.3225L7.50746 8.605L6.82836 9.795L8.32587 10.915C8.26783 11.09 8.2272 11.265 8.20398 11.44C8.18076 11.615 8.16915 11.8017 8.16915 12C8.16915 12.1867 8.18076 12.3675 8.20398 12.5425C8.2272 12.7175 8.26783 12.8925 8.32587 13.0675L6.82836 14.205L7.50746 15.395L9.23134 14.66C9.48673 14.9283 9.76824 15.1529 10.0759 15.3338C10.3835 15.5146 10.7172 15.6517 11.0771 15.745L11.3035 17.6ZM12.0348 14.45C12.7081 14.45 13.2828 14.2108 13.7587 13.7325C14.2347 13.2542 14.4726 12.6767 14.4726 12C14.4726 11.3233 14.2347 10.7458 13.7587 10.2675C13.2828 9.78917 12.7081 9.55 12.0348 9.55C11.3499 9.55 10.7724 9.78917 10.3022 10.2675C9.83209 10.7458 9.59701 11.3233 9.59701 12C9.59701 12.6767 9.83209 13.2542 10.3022 13.7325C10.7724 14.2108 11.3499 14.45 12.0348 14.45Z" fill="#A0AEC0"/>
</svg>
