<svg width="243" height="2283" viewBox="0 0 243 2283" fill="none" xmlns="http://www.w3.org/2000/svg">
<path d="M14.9227 12.3636L14.0659 11.4848C14.1545 11.0101 14.0216 10.5657 13.667 10.1515C13.3125 9.73737 12.8545 9.57576 12.2932 9.66667L11.4364 8.78788C11.6038 8.70707 11.7737 8.64646 11.946 8.60606C12.1184 8.56566 12.303 8.54545 12.5 8.54545C13.2386 8.54545 13.8665 8.81061 14.3835 9.34091C14.9006 9.87121 15.1591 10.5152 15.1591 11.2727C15.1591 11.4747 15.1394 11.6641 15.1 11.8409C15.0606 12.0177 15.0015 12.1919 14.9227 12.3636ZM16.8136 14.2727L15.9568 13.4242C16.3311 13.1313 16.6634 12.8106 16.954 12.4621C17.2445 12.1136 17.4932 11.7172 17.7 11.2727C17.2076 10.2525 16.5009 9.44192 15.5801 8.84091C14.6593 8.2399 13.6326 7.93939 12.5 7.93939C12.2144 7.93939 11.9337 7.9596 11.658 8C11.3822 8.0404 11.1114 8.10101 10.8455 8.18182L9.92955 7.24242C10.3333 7.07071 10.747 6.94192 11.1705 6.85606C11.5939 6.7702 12.0371 6.72727 12.5 6.72727C13.9871 6.72727 15.3117 7.14899 16.4739 7.99242C17.636 8.83586 18.478 9.92929 19 11.2727C18.7735 11.8687 18.4756 12.4217 18.1062 12.9318C17.7369 13.4419 17.3061 13.8889 16.8136 14.2727ZM17.1091 18L14.6273 15.4848C14.2826 15.596 13.9354 15.6793 13.5858 15.7348C13.2362 15.7904 12.8742 15.8182 12.5 15.8182C11.0129 15.8182 9.68826 15.3965 8.52614 14.553C7.36402 13.7096 6.52197 12.6162 6 11.2727C6.20682 10.7374 6.4678 10.2399 6.78295 9.7803C7.09811 9.32071 7.45758 8.90909 7.86136 8.54545L6.23636 6.84848L7.06364 6L17.9364 17.1515L17.1091 18ZM8.68864 9.39394C8.40303 9.65657 8.14205 9.94444 7.90568 10.2576C7.66932 10.5707 7.46742 10.9091 7.3 11.2727C7.79242 12.2929 8.49905 13.1035 9.41989 13.7045C10.3407 14.3056 11.3674 14.6061 12.5 14.6061C12.697 14.6061 12.889 14.5934 13.0761 14.5682C13.2633 14.5429 13.4553 14.5152 13.6523 14.4848L13.1205 13.9091C13.0121 13.9394 12.9087 13.9621 12.8102 13.9773C12.7117 13.9924 12.6083 14 12.5 14C11.7614 14 11.1335 13.7348 10.6165 13.2045C10.0994 12.6742 9.84091 12.0303 9.84091 11.2727C9.84091 11.1616 9.8483 11.0556 9.86307 10.9545C9.87784 10.8535 9.9 10.7475 9.92955 10.6364L8.68864 9.39394Z" fill="#A0AEC0"/>
</svg>
