<svg width="243" height="2283" viewBox="0 0 243 2283" fill="none" xmlns="http://www.w3.org/2000/svg">
<path d="M18.2706 11.3667V16.6667C18.2706 17.0333 18.1341 17.3472 17.8612 17.6083C17.5884 17.8694 17.2603 18 16.8771 18H7.12289C6.73969 18 6.41165 17.8694 6.13876 17.6083C5.86588 17.3472 5.72943 17.0333 5.72943 16.6667V11.3667C5.46235 11.1333 5.25624 10.8333 5.11109 10.4667C4.96593 10.1 4.96303 9.7 5.10238 9.26667L5.83394 7C5.92684 6.71111 6.09231 6.47222 6.33036 6.28333C6.56841 6.09444 6.8442 6 7.15773 6H16.8423C17.1558 6 17.4287 6.09167 17.6609 6.275C17.8932 6.45833 18.0615 6.7 18.1661 7L18.8976 9.26667C19.037 9.7 19.0341 10.0944 18.8889 10.45C18.7438 10.8056 18.5376 11.1111 18.2706 11.3667ZM13.5328 10.6667C13.8463 10.6667 14.0844 10.5639 14.247 10.3583C14.4095 10.1528 14.4734 9.92222 14.4386 9.66667L14.0554 7.33333H12.6967V9.8C12.6967 10.0333 12.778 10.2361 12.9406 10.4083C13.1032 10.5806 13.3006 10.6667 13.5328 10.6667ZM10.3975 10.6667C10.6646 10.6667 10.8823 10.5806 11.0507 10.4083C11.2191 10.2361 11.3033 10.0333 11.3033 9.8V7.33333H9.94465L9.56145 9.66667C9.515 9.93333 9.57596 10.1667 9.74434 10.3667C9.91271 10.5667 10.1304 10.6667 10.3975 10.6667ZM7.29708 10.6667C7.50609 10.6667 7.68899 10.5944 7.84575 10.45C8.00251 10.3056 8.09831 10.1222 8.13315 9.9L8.51635 7.33333H7.15773L6.461 9.56667C6.39133 9.78889 6.42907 10.0278 6.57422 10.2833C6.71937 10.5389 6.96032 10.6667 7.29708 10.6667ZM16.7029 10.6667C17.0397 10.6667 17.2835 10.5389 17.4345 10.2833C17.5854 10.0278 17.6203 9.78889 17.539 9.56667L16.8074 7.33333H15.4836L15.8668 9.9C15.9017 10.1222 15.9975 10.3056 16.1543 10.45C16.311 10.5944 16.4939 10.6667 16.7029 10.6667ZM7.12289 16.6667H16.8771V11.9667C16.819 11.9889 16.7813 12 16.7639 12C16.7465 12 16.7261 12 16.7029 12C16.3894 12 16.1136 11.95 15.8756 11.85C15.6375 11.75 15.4024 11.5889 15.1701 11.3667C14.9611 11.5667 14.7231 11.7222 14.456 11.8333C14.1889 11.9444 13.9044 12 13.6025 12C13.2889 12 12.9957 11.9444 12.7229 11.8333C12.45 11.7222 12.209 11.5667 12 11.3667C11.8026 11.5667 11.5733 11.7222 11.312 11.8333C11.0507 11.9444 10.7691 12 10.4672 12C10.1304 12 9.82562 11.9444 9.55274 11.8333C9.27985 11.7222 9.0389 11.5667 8.82988 11.3667C8.58602 11.6 8.34507 11.7639 8.10702 11.8583C7.86897 11.9528 7.59899 12 7.29708 12C7.27385 12 7.24772 12 7.21869 12C7.18966 12 7.15773 11.9889 7.12289 11.9667V16.6667ZM16.8771 16.6667H7.12289C7.15773 16.6667 7.18966 16.6667 7.21869 16.6667C7.24772 16.6667 7.27385 16.6667 7.29708 16.6667C7.59899 16.6667 7.86897 16.6667 8.10702 16.6667C8.34507 16.6667 8.58602 16.6667 8.82988 16.6667C8.93439 16.6667 9.04761 16.6667 9.16954 16.6667C9.29146 16.6667 9.4221 16.6667 9.56145 16.6667C9.70079 16.6667 9.84594 16.6667 9.9969 16.6667C10.1479 16.6667 10.3046 16.6667 10.4672 16.6667C10.6182 16.6667 10.7633 16.6667 10.9027 16.6667C11.042 16.6667 11.1784 16.6667 11.312 16.6667C11.4455 16.6667 11.5704 16.6667 11.6865 16.6667C11.8026 16.6667 11.9071 16.6667 12 16.6667C12.209 16.6667 12.45 16.6667 12.7229 16.6667C12.9957 16.6667 13.2889 16.6667 13.6025 16.6667C13.7534 16.6667 13.8986 16.6667 14.0379 16.6667C14.1773 16.6667 14.3137 16.6667 14.4473 16.6667C14.5808 16.6667 14.7085 16.6667 14.8305 16.6667C14.9524 16.6667 15.0656 16.6667 15.1701 16.6667C15.4024 16.6667 15.6375 16.6667 15.8756 16.6667C16.1136 16.6667 16.3894 16.6667 16.7029 16.6667C16.7261 16.6667 16.7465 16.6667 16.7639 16.6667C16.7813 16.6667 16.819 16.6667 16.8771 16.6667Z" fill="#A0AEC0"/>
</svg>
