<svg width="245" height="2283" viewBox="0 0 245 2283" fill="none" xmlns="http://www.w3.org/2000/svg">
<path d="M8.25 18C7.07803 18 6.0767 17.6062 5.24602 16.8187C4.41534 16.0312 4 15.0687 4 13.9312C4 12.9562 4.30265 12.0875 4.90795 11.325C5.51326 10.5625 6.3053 10.075 7.28409 9.8625C7.60606 8.7125 8.25 7.78125 9.21591 7.06875C10.1818 6.35625 11.2765 6 12.5 6C14.0068 6 15.285 6.50937 16.3347 7.52812C17.3843 8.54688 17.9091 9.7875 17.9091 11.25C18.7977 11.35 19.535 11.7219 20.121 12.3656C20.707 13.0094 21 13.7625 21 14.625C21 15.5625 20.6619 16.3594 19.9858 17.0156C19.3097 17.6719 18.4886 18 17.5227 18H13.2727C12.8477 18 12.4839 17.8531 12.1812 17.5594C11.8786 17.2656 11.7273 16.9125 11.7273 16.5V12.6375L10.4909 13.8L9.40909 12.75L12.5 9.75L15.5909 12.75L14.5091 13.8L13.2727 12.6375V16.5H17.5227C18.0636 16.5 18.5208 16.3187 18.8943 15.9562C19.2678 15.5938 19.4545 15.15 19.4545 14.625C19.4545 14.1 19.2678 13.6562 18.8943 13.2937C18.5208 12.9312 18.0636 12.75 17.5227 12.75H16.3636V11.25C16.3636 10.2125 15.9869 9.32812 15.2335 8.59687C14.4801 7.86562 13.5689 7.5 12.5 7.5C11.4311 7.5 10.5199 7.86562 9.76648 8.59687C9.01307 9.32812 8.63636 10.2125 8.63636 11.25H8.25C7.50303 11.25 6.86553 11.5062 6.3375 12.0187C5.80947 12.5312 5.54545 13.15 5.54545 13.875C5.54545 14.6 5.80947 15.2187 6.3375 15.7312C6.86553 16.2437 7.50303 16.5 8.25 16.5H10.1818V18H8.25Z" fill="#A0AEC0"/>
</svg>
