<svg width="244" height="2283" viewBox="0 0 244 2283" fill="none" xmlns="http://www.w3.org/2000/svg">
<path d="M6.5 18C6.0875 18 5.73438 17.8531 5.44063 17.5594C5.14687 17.2656 5 16.9125 5 16.5V7.5C5 7.0875 5.14687 6.73438 5.44063 6.44062C5.73438 6.14687 6.0875 6 6.5 6H15.5C15.9125 6 16.2656 6.14687 16.5594 6.44062C16.8531 6.73438 17 7.0875 17 7.5V10.875L20 7.875V16.125L17 13.125V16.5C17 16.9125 16.8531 17.2656 16.5594 17.5594C16.2656 17.8531 15.9125 18 15.5 18H6.5ZM6.5 16.5H15.5V7.5H6.5V16.5Z" fill="#A0AEC0"/>
</svg>
